<svg
    xmlns="http://www.w3.org/2000/svg"
    width="36"
    height="36"
    fill="none"
    viewBox="0 0 24 24"
    class="emoji-rocket"
>
    <path
        fill="#FFA726"
        d="M13.5 2.05s.5 2.05.5 4c0 1.5-.5 3-1.5 3S10.5 7.55 10.5 6c0-1.95.5-4 .5-4S9 3 6 6c-1.5 1.5-.5 4.5-.5 4.5S3 9 2.05 13.5c0 0 2.05.5 4 .5 1.5 0 3-.5 3-1.5s1.5 2 1.5 2 .5 2.55 4 .5c3-3 3.95-3.95 3.95-3.95s-3 .5-4.5.5c-1 0-1.5-1.5-1.5-1.5s1.5 0 1.5-3c0-1.5-.5-3-1.5-3z"
    ></path>
    <path
        fill="#78909C"
        d="M8.5 10.5s1 1 1.5 1 1.5-1 1.5-1-1-1-1.5-1-1.5 1-1.5 1z"
    ></path>
    <path
        fill="#FFF"
        d="M14.5 14.5s2 .5 3 0 0-3 0-3-3-.5-3 0 .5 3 0 3z"
    ></path>
</svg>
